<svg width="200" height="200" viewBox="0 0 200 200" fill="none" xmlns="http://www.w3.org/2000/svg">
<path d="M98.938 137.961C112.786 137.961 125.709 141.023 136.631 146.317C143.889 149.836 140.685 158.839 132.618 158.839H65.2584C57.1923 158.839 53.9874 149.836 61.2457 146.317C72.1678 141.023 85.0898 137.961 98.938 137.961Z" fill="#8FB400"/>
<path d="M99.7197 40.3555C113.858 40.3555 125.494 51.0632 126.964 64.8115C138.939 67.0617 148 77.5735 148 90.2021C148 104.471 136.432 116.038 122.163 116.038H77.2754C63.0067 116.038 51.4397 104.471 51.4395 90.2021C51.4395 77.5738 60.4998 67.062 72.4746 64.8115C73.9442 51.0631 85.5812 40.3555 99.7197 40.3555Z" fill="#B2D210"/>
<path d="M98.9398 71.668C101.246 71.668 103.115 73.5378 103.116 75.8438V106.878L112.929 97.0645C114.56 95.434 117.204 95.4339 118.834 97.0645C120.465 98.6951 120.465 101.339 118.834 102.97L103.116 118.688V137.956C103.115 140.262 101.246 142.132 98.9398 142.132C96.6338 142.132 94.7641 140.262 94.764 137.956V109.362C94.6248 109.255 94.4894 109.139 94.3617 109.011L78.4046 93.0537C76.774 91.423 76.774 88.7791 78.4046 87.1484C80.0353 85.5178 82.6792 85.5178 84.3099 87.1484L94.764 97.6025V75.8438C94.7642 73.5378 96.6338 71.668 98.9398 71.668Z" fill="#8FB400"/>
</svg>
