<svg width="200" height="200" viewBox="0 0 200 200" fill="none" xmlns="http://www.w3.org/2000/svg">
<path d="M109.209 61.6356C109.209 59.7809 110.713 58.2773 112.567 58.2773H183.57C185.424 58.2773 186.928 59.7809 186.928 61.6356V142.713C186.928 144.567 185.424 146.071 183.57 146.071H112.567C110.713 146.071 109.209 144.567 109.209 142.713V61.6356Z" fill="#CBE638"/>
<path d="M54.0381 83.7037V91.3797H45.8824V83.7037H54.0381ZM62.1938 75.5481V68.8316C62.1938 64.3274 58.5423 60.6759 54.0381 60.6759H45.8824C41.3781 60.6759 37.7267 64.3274 37.7267 68.8316V75.5481C37.7267 80.0523 41.3781 83.7037 45.8824 83.7037V91.3797C37.1388 91.3797 30.0508 84.2916 30.0508 75.5481V68.8316C30.0508 60.0881 37.1388 53 45.8824 53H54.0381C62.7816 53 69.8697 60.0881 69.8697 68.8316V75.5481C69.8697 84.2916 62.7816 91.3797 54.0381 91.3797V83.7037C58.5423 83.7037 62.1938 80.0523 62.1938 75.5481Z" fill="#8FB400"/>
<path d="M12.1689 81.0192C12.7935 76.2415 16.8645 72.668 21.6829 72.668H78.2394C83.0578 72.668 87.1288 76.2415 87.7534 81.0192L94.8398 135.231C95.5907 140.975 91.1188 146.069 85.3258 146.069H14.5965C8.80346 146.069 4.33161 140.975 5.08247 135.231L12.1689 81.0192Z" fill="#B2D210"/>
<path d="M126.48 58.2773H148.069V84.4235C148.069 90.385 143.236 95.2178 137.275 95.2178V95.2178C131.313 95.2178 126.48 90.385 126.48 84.4235V58.2773Z" fill="#B2D210"/>
<path d="M169.656 58.2773H148.068V84.4235C148.068 90.385 152.9 95.2178 158.862 95.2178V95.2178C164.823 95.2178 169.656 90.385 169.656 84.4235V58.2773Z" fill="#8FB500"/>
<path d="M104.142 63.5224C104.572 60.5128 107.15 58.2773 110.19 58.2773H126.48V82.7395C126.48 89.6311 120.894 95.2178 114.002 95.2178C106.408 95.2178 100.575 88.4921 101.649 80.9748L104.142 63.5224Z" fill="#8FB500"/>
<path d="M191.994 63.5224C191.564 60.5128 188.987 58.2773 185.946 58.2773H169.656V82.7395C169.656 89.6311 175.243 95.2178 182.134 95.2178C189.728 95.2178 195.561 88.4921 194.487 80.9748L191.994 63.5224Z" fill="#B2D210"/>
<path d="M124.08 111.734C124.08 108.973 126.319 106.734 129.08 106.734H167.534C170.296 106.734 172.534 108.973 172.534 111.734V146.074H124.08V111.734Z" fill="#8FB500"/>
</svg>
