<svg width="200" height="200" viewBox="0 0 200 200" fill="none" xmlns="http://www.w3.org/2000/svg">
<path d="M58.357 69.2193C58.8559 63.8051 63.3209 59.6667 68.6635 59.6667H130.337C135.679 59.6667 140.144 63.8051 140.643 69.2193L146.93 137.445C147.798 146.863 140.518 155 131.225 155H67.7754C58.4818 155 51.2024 146.863 52.0703 137.445L58.357 69.2193Z" fill="#ACCE0C"/>
<path d="M104.211 82.1004V90.1282H94.7892V82.1004H104.211ZM114.613 71.5129V63.6153C114.613 57.7681 109.956 53.0279 104.211 53.0278H94.7892C89.0445 53.0279 84.3874 57.768 84.3874 63.6153V71.5129C84.3874 77.3602 89.0444 82.1003 94.7892 82.1004V90.1282C84.6886 90.1282 76.5004 81.7938 76.5004 71.5129V63.6153C76.5004 53.3344 84.6886 45 94.7892 45H104.211L104.683 45.0059C114.565 45.2606 122.5 53.4949 122.5 63.6153V71.5129L122.494 71.9935C122.247 81.8928 114.408 89.8716 104.683 90.1223L104.211 90.1282V82.1004C109.956 82.1003 114.613 77.3602 114.613 71.5129Z" fill="#8FB400"/>
<path d="M70.4041 123.541C70.4041 119.107 73.9353 115.513 78.2911 115.513H120.709C125.065 115.513 128.596 119.107 128.596 123.541V141.955C128.596 149.159 122.858 155 115.779 155H83.2205C76.1422 155 70.4041 149.159 70.4041 141.955V123.541Z" fill="#CBE638"/>
<path d="M75.9462 59.6667H125.271L129.065 84.7727C129.984 90.8513 125.364 96.3333 119.321 96.3333H81.8956C75.8533 96.3333 71.2327 90.8513 72.1515 84.7727L75.9462 59.6667Z" fill="#CBE638"/>
<path d="M90.3556 91.4463C90.3556 89.7837 91.6798 88.4359 93.3132 88.4359H105.687C107.32 88.4359 108.644 89.7837 108.644 91.4463V102.349C108.644 104.011 107.32 105.359 105.687 105.359H93.3132C91.6798 105.359 90.3556 104.011 90.3556 102.349V91.4463Z" fill="#8EB601"/>
</svg>
