<svg width="200" height="200" viewBox="0 0 200 200" fill="none" xmlns="http://www.w3.org/2000/svg">
<rect x="55" y="47.8633" width="11.3016" height="36.2593" rx="5.65079" fill="#B2D210"/>
<rect x="94.5547" y="47.8633" width="11.3016" height="36.2593" rx="5.65079" fill="#B2D210"/>
<rect x="74.7773" y="47.8633" width="11.3016" height="36.2593" rx="5.65079" fill="#B2D210"/>
<path d="M137.348 46.4692C140.406 44.9452 144 47.1702 144 50.5873V144.286C144 149.939 139.417 154.522 133.764 154.522C127.584 154.522 122.813 149.088 123.613 142.96L127.979 109.53C121.681 109.163 116.688 103.94 116.688 97.5512V78.9428L117.292 74.475C118.926 62.3947 126.437 51.9066 137.348 46.4692Z" fill="#8FB500"/>
<path d="M70.3314 98.4793C70.4471 93.1158 74.8283 88.8281 80.1931 88.8281V88.8281C85.5579 88.8281 89.9391 93.1158 90.0548 98.4793L91.0204 143.22C91.1515 149.291 86.2657 154.283 80.1931 154.283V154.283C74.1204 154.283 69.2347 149.291 69.3657 143.22L70.3314 98.4793Z" fill="#8FB500"/>
<path d="M80.4287 53.9805C82.3708 53.9805 84.2618 54.199 86.0791 54.6113V75.1709C86.0791 77.5115 87.9768 79.4091 90.3174 79.4092C92.658 79.4092 94.5557 77.5115 94.5557 75.1709V58.2637C101.37 62.8254 105.857 70.593 105.857 79.4092C105.857 93.4529 94.4725 104.838 80.4287 104.838C66.3849 104.838 55 93.453 55 79.4092C55 70.5927 59.4869 62.8243 66.3018 58.2627V75.1709C66.3018 77.5115 68.1994 79.4092 70.54 79.4092C72.8805 79.409 74.7773 77.5114 74.7773 75.1709V54.6113C76.5949 54.1989 78.4864 53.9805 80.4287 53.9805Z" fill="#B2D210"/>
</svg>
