<svg width="200" height="200" viewBox="0 0 200 200" fill="none" xmlns="http://www.w3.org/2000/svg">
<path d="M64.8839 118.957C84.2548 118.957 100.745 132.404 106.943 151.207C108.636 156.344 104.392 161.129 98.983 161.129H30.7848C25.3762 161.129 21.1313 156.344 22.8246 151.207C29.0227 132.404 45.513 118.957 64.8839 118.957Z" fill="#8FB500"/>
<path d="M35.1816 82.5847C35.1816 66.2088 48.5008 52.9336 64.9309 52.9336C81.3609 52.9336 94.6801 66.2088 94.6801 82.5847V93.4374C94.6801 109.813 81.3609 123.088 64.9309 123.088C48.5008 123.088 35.1816 109.813 35.1816 93.4374V82.5847Z" fill="#B2D210"/>
<circle cx="53.6642" cy="88.3927" r="4.64272" fill="#8FB500"/>
<circle cx="76.1056" cy="88.3927" r="4.64272" fill="#8FB500"/>
<path d="M73.7403 101.631C74.7597 100.542 76.4696 100.482 77.5626 101.498C78.6577 102.517 78.7197 104.231 77.7013 105.326L75.8028 103.561C77.5983 105.231 77.6946 105.322 77.6993 105.327L77.6983 105.329L77.6876 105.34C77.6821 105.346 77.6758 105.353 77.668 105.361C77.6523 105.378 77.6314 105.399 77.6065 105.425C77.5566 105.476 77.4882 105.546 77.4024 105.63C77.2307 105.799 76.9879 106.03 76.6798 106.301C76.0657 106.841 75.1792 107.556 74.0714 108.272C71.8888 109.682 68.6502 111.22 64.8243 111.22C60.9938 111.22 57.7811 109.678 55.6212 108.261C54.5261 107.542 53.6538 106.824 53.0499 106.281C52.7468 106.009 52.5077 105.777 52.3389 105.608C52.2546 105.523 52.188 105.452 52.1388 105.401C52.1143 105.375 52.0938 105.354 52.0782 105.337C52.0704 105.329 52.0632 105.321 52.0577 105.315C52.0551 105.312 52.0529 105.309 52.0509 105.307L52.046 105.302C52.0456 105.301 52.0686 105.279 54.0518 103.482L52.045 105.3C51.0408 104.192 51.1252 102.479 52.2335 101.475C53.3414 100.471 55.0533 100.555 56.0577 101.662C56.0608 101.666 56.065 101.67 56.0704 101.676C56.0909 101.698 56.1276 101.736 56.1798 101.788C56.2845 101.894 56.4508 102.055 56.672 102.254C57.1167 102.654 57.772 103.194 58.5929 103.733C60.2654 104.83 62.4398 105.803 64.8243 105.803C67.2135 105.803 69.4228 104.827 71.1329 103.722C71.9708 103.18 72.6425 102.638 73.0997 102.236C73.3271 102.035 73.4991 101.872 73.6075 101.766C73.6614 101.713 73.6992 101.674 73.7208 101.652C73.7313 101.641 73.7379 101.634 73.7403 101.631Z" fill="#8FB500"/>
<path d="M108.889 92.1517C108.889 77.8487 120.618 66.2539 135.086 66.2539C149.554 66.2539 161.283 77.8487 161.283 92.1517V101.631C161.283 115.934 149.554 127.528 135.086 127.528C120.618 127.528 108.889 115.934 108.889 101.631V92.1517Z" fill="#B2D210"/>
<path d="M97.8745 123.377C99.7676 129.937 111.416 129.755 117.003 128.844H129.821C130.873 103.658 130.373 54.7301 119.961 60.5092C106.946 67.7331 103.199 83.5477 102.804 92.724C102.41 101.9 100.241 109.319 99.4521 111.857C98.6633 114.395 96.2969 119.472 97.8745 123.377Z" fill="#8FB500"/>
<path d="M172.295 123.377C170.402 129.937 158.754 129.755 153.167 128.844H140.349C139.297 103.658 139.797 54.7301 150.209 60.5092C163.224 67.7331 166.971 83.5477 167.365 92.724C167.76 101.9 169.929 109.319 170.718 111.857C171.507 114.395 173.873 119.472 172.295 123.377Z" fill="#8FB500"/>
<path d="M135.298 118.957C154.669 118.957 171.158 132.404 177.356 151.207C179.049 156.344 174.805 161.129 169.396 161.129H101.199C95.7903 161.129 91.5454 156.344 93.2386 151.207C99.4367 132.404 115.927 118.957 135.298 118.957Z" fill="#B2D210"/>
<g filter="url(#filter0_d_170_252)">
<path d="M108.889 92.1517C108.889 77.8487 120.618 66.2539 135.086 66.2539C149.554 66.2539 161.283 77.8487 161.283 92.1517V101.631C161.283 115.934 149.554 127.528 135.086 127.528C120.618 127.528 108.889 115.934 108.889 101.631V92.1517Z" fill="#CBE638"/>
</g>
<mask id="mask0_170_252" style="mask-type:alpha" maskUnits="userSpaceOnUse" x="92" y="38" width="86" height="46">
<circle cx="115.182" cy="61.3109" r="22.4398" fill="#89AC00"/>
<circle cx="155.03" cy="61.3109" r="22.4398" fill="#89AC00"/>
</mask>
<g mask="url(#mask0_170_252)">
<path d="M105.51 85.8747C105.51 69.5285 118.761 56.2773 135.107 56.2773C151.453 56.2773 164.704 69.5285 164.704 85.8747V96.7077C164.704 113.054 151.453 126.305 135.107 126.305C118.761 126.305 105.51 113.054 105.51 96.7077V85.8747Z" fill="#8FB500"/>
</g>
<circle cx="125.344" cy="97.1547" r="4.11959" fill="#8FB500"/>
<circle cx="145.254" cy="97.1547" r="4.11959" fill="#8FB500"/>
<path d="M143.157 108.902C144.061 107.935 145.577 107.882 146.547 108.784C147.519 109.688 147.574 111.209 146.67 112.181L144.986 110.614C146.605 112.12 146.667 112.179 146.669 112.182L146.658 112.193C146.654 112.198 146.648 112.204 146.641 112.211C146.627 112.226 146.609 112.245 146.587 112.268C146.543 112.313 146.482 112.376 146.406 112.45C146.253 112.6 146.037 112.805 145.764 113.045C145.219 113.525 144.433 114.159 143.45 114.794C141.514 116.045 138.64 117.409 135.245 117.409C131.846 117.409 128.996 116.042 127.079 114.784C126.108 114.147 125.333 113.509 124.797 113.028C124.528 112.786 124.317 112.58 124.167 112.43C124.092 112.355 124.032 112.292 123.989 112.246C123.967 112.223 123.949 112.205 123.935 112.19C123.928 112.182 123.922 112.175 123.917 112.17L123.908 112.16L123.907 112.158C123.908 112.156 123.966 112.103 125.528 110.688L123.906 112.157C123.014 111.174 123.089 109.654 124.073 108.763C125.056 107.872 126.575 107.947 127.466 108.929C127.469 108.932 127.473 108.937 127.478 108.942C127.496 108.961 127.528 108.995 127.575 109.041C127.667 109.135 127.815 109.278 128.011 109.454C128.406 109.809 128.988 110.288 129.716 110.766C131.2 111.74 133.13 112.604 135.245 112.604C137.365 112.604 139.325 111.737 140.842 110.757C141.586 110.277 142.182 109.795 142.588 109.438C142.79 109.26 142.942 109.115 143.038 109.021C143.086 108.974 143.12 108.939 143.139 108.919C143.148 108.91 143.154 108.904 143.157 108.902Z" fill="#8FB500"/>
<path d="M89.785 44.2579C92.5864 41.6152 97.0009 41.7477 99.6385 44.5538L99.6971 44.6153C100.22 45.1722 101.106 45.1688 101.624 44.6075C104.231 41.7798 108.645 41.6257 111.442 44.2648C114.245 46.9087 114.373 51.3235 111.729 54.1261L109.374 56.6222L103.455 62.9308C101.871 64.619 99.1878 64.6138 97.6102 62.9191L89.4628 54.1661C86.8291 51.3362 86.9733 46.9109 89.785 44.2579Z" fill="#8FB500"/>
<defs>
<filter id="filter0_d_170_252" x="99.8887" y="62.2539" width="70.3945" height="79.2734" filterUnits="userSpaceOnUse" color-interpolation-filters="sRGB">
<feFlood flood-opacity="0" result="BackgroundImageFix"/>
<feColorMatrix in="SourceAlpha" type="matrix" values="0 0 0 0 0 0 0 0 0 0 0 0 0 0 0 0 0 0 127 0" result="hardAlpha"/>
<feOffset dy="5"/>
<feGaussianBlur stdDeviation="4.5"/>
<feComposite in2="hardAlpha" operator="out"/>
<feColorMatrix type="matrix" values="0 0 0 0 0.537255 0 0 0 0 0.67451 0 0 0 0 0 0 0 0 0.3 0"/>
<feBlend mode="normal" in2="BackgroundImageFix" result="effect1_dropShadow_170_252"/>
<feBlend mode="normal" in="SourceGraphic" in2="effect1_dropShadow_170_252" result="shape"/>
</filter>
</defs>
</svg>
