<svg width="200" height="200" viewBox="0 0 200 200" fill="none" xmlns="http://www.w3.org/2000/svg">
<path d="M53.1836 86.0032C53.1836 70.2548 66.1889 57.4883 82.2317 57.4883C98.2745 57.4883 111.28 70.2548 111.28 86.0032V96.44C111.28 112.188 98.2745 124.955 82.2317 124.955C66.1889 124.955 53.1836 112.188 53.1836 96.44V86.0032Z" fill="#B2D210"/>
<path d="M42.4843 119.553C44.4279 126.564 56.3864 126.369 62.1227 125.395H75.2825C76.3622 98.4786 75.8493 46.1895 65.1596 52.3657C51.7973 60.086 47.9506 76.9871 47.5457 86.7939C47.1408 96.6007 44.9138 104.529 44.104 107.242C43.2942 109.954 40.8646 115.38 42.4843 119.553Z" fill="#8FB500"/>
<path d="M122.886 119.553C120.834 126.564 108.211 126.369 102.156 125.395H88.2655C87.1258 98.4786 87.6672 46.1895 98.9508 52.3657C113.055 60.086 117.116 76.9871 117.543 86.7939C117.971 96.6007 120.321 104.529 121.176 107.242C122.031 109.954 124.595 115.38 122.886 119.553Z" fill="#8FB500"/>
<path d="M82.4608 114.98C103.664 114.981 121.674 129.887 128.168 150.618C129.785 155.779 125.544 160.558 120.136 160.558H44.7851C39.3766 160.558 35.1357 155.779 36.7524 150.618C43.2465 129.887 61.2577 114.98 82.4608 114.98Z" fill="#B2D210"/>
<g filter="url(#filter0_d_170_253)">
<path d="M53.1836 86.0032C53.1836 70.2548 66.1889 57.4883 82.2317 57.4883C98.2745 57.4883 111.28 70.2548 111.28 86.0032V96.44C111.28 112.188 98.2745 124.955 82.2317 124.955C66.1889 124.955 53.1836 112.188 53.1836 96.44V86.0032Z" fill="#CBE638"/>
</g>
<mask id="mask0_170_253" style="mask-type:alpha" maskUnits="userSpaceOnUse" x="36" y="28" width="93" height="49">
<circle cx="60.7195" cy="52.6882" r="24.2507" fill="#89AC00"/>
<circle cx="103.784" cy="52.6882" r="24.2507" fill="#89AC00"/>
</mask>
<g mask="url(#mask0_170_253)">
<path d="M50.2656 79.2398C50.2656 61.5745 64.5862 47.2539 82.2515 47.2539C99.9168 47.2539 114.237 61.5745 114.237 79.2398V90.9471C114.237 108.612 99.9168 122.933 82.2515 122.933C64.5862 122.933 50.2656 108.612 50.2656 90.9471V79.2398Z" fill="#8FB500"/>
</g>
<circle cx="71.7021" cy="91.4247" r="4.45206" fill="#8FB500"/>
<circle cx="93.2216" cy="91.4247" r="4.45206" fill="#8FB500"/>
<path d="M90.9543 104.115C91.9318 103.071 93.5702 103.014 94.6183 103.988C95.6686 104.965 95.728 106.608 94.7511 107.658L92.9308 105.965C94.6449 107.559 94.7449 107.653 94.7502 107.659L94.7492 107.661L94.7384 107.672C94.7332 107.678 94.7273 107.685 94.7199 107.693C94.7048 107.708 94.6853 107.729 94.6613 107.754C94.6134 107.803 94.5473 107.869 94.465 107.95C94.3004 108.112 94.067 108.333 93.7716 108.593C93.1829 109.111 92.3337 109.796 91.2716 110.483C89.1787 111.835 86.0732 113.31 82.4045 113.31C78.7312 113.31 75.6505 111.832 73.5793 110.473C72.5291 109.784 71.6926 109.095 71.1134 108.574C70.8227 108.313 70.5937 108.091 70.4318 107.928C70.3508 107.846 70.2857 107.779 70.2384 107.73C70.215 107.705 70.1957 107.684 70.1808 107.668C70.1734 107.66 70.1665 107.653 70.1613 107.648C70.1587 107.645 70.1565 107.642 70.1545 107.64C70.1535 107.639 70.1524 107.638 70.1515 107.637L70.1506 107.635C70.1536 107.631 70.2313 107.56 71.9025 106.045L70.1486 107.634C69.1857 106.571 69.2674 104.928 70.3302 103.965C71.3926 103.003 73.0331 103.084 73.9963 104.145C73.9993 104.148 74.0037 104.153 74.009 104.158C74.0286 104.179 74.0644 104.215 74.1144 104.266C74.2148 104.367 74.3741 104.521 74.5861 104.712C75.0126 105.096 75.6416 105.613 76.4289 106.13C78.0328 107.182 80.1179 108.116 82.4045 108.116C84.6954 108.116 86.8135 107.18 88.4533 106.12C89.2571 105.601 89.9016 105.08 90.34 104.694C90.5581 104.502 90.7224 104.346 90.8263 104.244C90.8778 104.194 90.914 104.156 90.9347 104.135C90.945 104.124 90.952 104.118 90.9543 104.115Z" fill="#8FB500"/>
<path d="M134.85 131.922C146.93 131.922 157.36 139.622 162.242 150.768C164.412 155.723 160.146 160.557 154.737 160.557H114.964C109.555 160.557 105.288 155.723 107.458 150.768C112.341 139.622 122.771 131.922 134.85 131.922Z" fill="#8FB500"/>
<path d="M115.027 108.212C115.027 97.2758 123.837 88.4102 134.705 88.4102C145.573 88.4102 154.383 97.2758 154.383 108.212V115.46C154.383 126.396 145.573 135.262 134.705 135.262C123.837 135.262 115.027 126.396 115.027 115.46V108.212Z" fill="#B2D210"/>
<circle cx="127.233" cy="111.172" r="3.15268" fill="#8FB500"/>
<circle cx="142.473" cy="111.172" r="3.15268" fill="#8FB500"/>
<path d="M140.871 120.157C141.563 119.417 142.724 119.377 143.466 120.067C144.209 120.759 144.252 121.922 143.561 122.666L142.271 121.466C143.51 122.619 143.558 122.664 143.56 122.667L143.559 122.668C143.558 122.668 143.557 122.67 143.557 122.67C143.555 122.672 143.553 122.673 143.551 122.675C143.547 122.679 143.543 122.685 143.538 122.69C143.527 122.701 143.513 122.716 143.496 122.733C143.462 122.768 143.416 122.815 143.357 122.873C143.241 122.987 143.075 123.144 142.866 123.328C142.449 123.695 141.848 124.18 141.096 124.666C139.614 125.623 137.415 126.668 134.816 126.668C132.215 126.668 130.034 125.621 128.567 124.659C127.824 124.171 127.231 123.683 126.821 123.314C126.615 123.129 126.453 122.972 126.338 122.857C126.281 122.799 126.236 122.752 126.202 122.716L126.148 122.658C126.146 122.656 126.143 122.655 126.142 122.653C126.141 122.652 126.14 122.651 126.14 122.65L126.139 122.649C126.139 122.648 126.174 122.616 127.501 121.414C127.535 121.383 127.568 121.352 127.601 121.323L126.138 122.648C125.456 121.895 125.514 120.732 126.267 120.05C127.019 119.369 128.181 119.426 128.863 120.177C128.865 120.18 128.868 120.183 128.872 120.187C128.886 120.202 128.911 120.228 128.946 120.263C129.017 120.335 129.13 120.445 129.28 120.58C129.582 120.851 130.028 121.218 130.585 121.584C131.721 122.329 133.197 122.99 134.816 122.99C136.439 122.99 137.938 122.327 139.1 121.577C139.669 121.209 140.125 120.84 140.436 120.567C140.59 120.431 140.707 120.32 140.78 120.248L140.871 120.157Z" fill="#8FB500"/>
<defs>
<filter id="filter0_d_170_253" x="44.1836" y="53.4883" width="76.0957" height="85.4648" filterUnits="userSpaceOnUse" color-interpolation-filters="sRGB">
<feFlood flood-opacity="0" result="BackgroundImageFix"/>
<feColorMatrix in="SourceAlpha" type="matrix" values="0 0 0 0 0 0 0 0 0 0 0 0 0 0 0 0 0 0 127 0" result="hardAlpha"/>
<feOffset dy="5"/>
<feGaussianBlur stdDeviation="4.5"/>
<feComposite in2="hardAlpha" operator="out"/>
<feColorMatrix type="matrix" values="0 0 0 0 0.537255 0 0 0 0 0.67451 0 0 0 0 0 0 0 0 0.3 0"/>
<feBlend mode="normal" in2="BackgroundImageFix" result="effect1_dropShadow_170_253"/>
<feBlend mode="normal" in="SourceGraphic" in2="effect1_dropShadow_170_253" result="shape"/>
</filter>
</defs>
</svg>
