<svg width="200" height="200" viewBox="0 0 200 200" fill="none" xmlns="http://www.w3.org/2000/svg">
<path d="M144 84.0508C144 102.624 118.585 137.074 106.169 152.797C102.728 157.153 96.2717 157.153 92.8315 152.797C80.4151 137.074 55 102.624 55 84.0508C55 59.4741 74.9233 39.5508 99.5 39.5508C124.077 39.5508 144 59.4741 144 84.0508Z" fill="#B2D210"/>
<circle cx="99.501" cy="84.544" r="27.2901" fill="#CBE638"/>
<path d="M96.8749 72.1919C97.9724 70.0558 101.026 70.0558 102.123 72.1919L104.515 76.8473C104.943 77.6812 105.743 78.2618 106.668 78.4115L111.835 79.2476C114.205 79.6312 115.149 82.5353 113.457 84.2392L109.768 87.9524C109.107 88.6175 108.802 89.557 108.946 90.4833L109.747 95.6555C110.115 98.0287 107.644 99.8235 105.501 98.7404L100.83 96.3799C99.9931 95.9571 99.0053 95.9571 98.1686 96.3799L93.4972 98.7404C91.3538 99.8235 88.8834 98.0287 89.2512 95.6555L90.0526 90.4833C90.1962 89.557 89.8909 88.6175 89.2303 87.9524L85.5418 84.2391C83.8494 82.5353 84.793 79.6312 87.1637 79.2476L92.3303 78.4115C93.2557 78.2618 94.0548 77.6812 94.4832 76.8473L96.8749 72.1919Z" fill="#8FB500"/>
</svg>
