<svg width="200" height="200" viewBox="0 0 200 200" fill="none" xmlns="http://www.w3.org/2000/svg">
<path d="M43 142.898C43 140.242 45.1528 138.088 47.8085 138.088H151.191C153.847 138.088 156 140.242 156 142.898V148.19C156 150.846 153.847 153 151.191 153H47.8085C45.1528 153 43 150.846 43 148.19V142.898Z" fill="#B2D210"/>
<path d="M53.0979 130.872C53.0979 128.216 55.2507 126.062 57.9064 126.062H141.094C143.749 126.062 145.902 128.216 145.902 130.872V138.088H53.0979V130.872Z" fill="#8FB500"/>
<path d="M145.902 90.9466C145.902 93.6033 143.749 95.757 141.094 95.757L57.9064 95.7569C55.2507 95.7569 53.0979 93.6033 53.0979 90.9466L53.0979 83.7311L145.902 83.7311V90.9466Z" fill="#8FB500"/>
<path d="M96.0155 46.6643C97.6977 45.7786 99.7081 45.7786 101.39 46.6643L151.127 72.8515C156.458 75.6582 154.464 83.732 148.44 83.732H48.9661C42.9422 83.732 40.948 75.6582 46.2787 72.8515L96.0155 46.6643Z" fill="#B2D210"/>
<path d="M59.8298 95.757H76.6596V126.062H59.8298V95.757Z" fill="#B2D210"/>
<path d="M123.302 95.757H140.132V126.062H123.302V95.757Z" fill="#B2D210"/>
<path d="M91.566 95.757H108.396V126.062H91.566V95.757Z" fill="#B2D210"/>
</svg>
