<svg width="200" height="200" viewBox="0 0 200 200" fill="none" xmlns="http://www.w3.org/2000/svg">
<path d="M123.642 63.5133C124.393 65.692 126.444 67.1541 128.749 67.1541H138.712C146.171 67.1541 152.217 73.2004 152.217 80.6588V132.426C152.217 139.885 146.171 145.931 138.712 145.931H61.2859C53.8275 145.931 47.7813 139.885 47.7812 132.426V80.6588C47.7812 73.2004 53.8275 67.1541 61.2859 67.1541H71.2496C73.5542 67.1541 75.605 65.692 76.3563 63.5133L78.0365 58.6409C78.7878 56.4621 80.8386 55 83.1433 55H116.855C119.16 55 121.21 56.4621 121.962 58.6409L123.642 63.5133Z" fill="#8FB500"/>
<path d="M114.404 106.315C114.404 98.3594 107.954 91.9101 99.9986 91.9101C92.043 91.9101 85.5937 98.3594 85.5937 106.315C85.5937 114.271 92.043 120.72 99.9986 120.72V131.974C85.8277 131.974 74.3398 120.486 74.3398 106.315C74.3398 92.1441 85.8277 80.6562 99.9986 80.6562C114.17 80.6562 125.657 92.1441 125.657 106.315C125.657 120.486 114.17 131.974 99.9986 131.974V120.72C107.954 120.72 114.404 114.271 114.404 106.315Z" fill="#CBE638"/>
</svg>
